<?xml version="1.0" encoding="UTF-8" standalone="no"?>
<!-- Created with Inkscape (http://www.inkscape.org/) -->

<svg
   width="512"
   height="512"
   viewBox="0 0 135.46666 135.46667"
   version="1.1"
   id="svg5"
   xml:space="preserve"
   inkscape:export-filename="Culinect_logo.png"
   inkscape:export-xdpi="96"
   inkscape:export-ydpi="96"
   inkscape:version="1.2.1 (9c6d41e410, 2022-07-14)"
   sodipodi:docname="culinect_logo.svg"
   xmlns:inkscape="http://www.inkscape.org/namespaces/inkscape"
   xmlns:sodipodi="http://sodipodi.sourceforge.net/DTD/sodipodi-0.dtd"
   xmlns="http://www.w3.org/2000/svg"
   xmlns:svg="http://www.w3.org/2000/svg"><sodipodi:namedview
     id="namedview7"
     pagecolor="#ffffff"
     bordercolor="#000000"
     borderopacity="0.25"
     inkscape:showpageshadow="2"
     inkscape:pageopacity="0.0"
     inkscape:pagecheckerboard="0"
     inkscape:deskcolor="#d1d1d1"
     inkscape:document-units="px"
     showgrid="false"
     inkscape:zoom="0.50646226"
     inkscape:cx="273.46559"
     inkscape:cy="222.12909"
     inkscape:window-width="1920"
     inkscape:window-height="991"
     inkscape:window-x="-9"
     inkscape:window-y="-9"
     inkscape:window-maximized="1"
     inkscape:current-layer="layer1" /><defs
     id="defs2" /><g
     inkscape:label="Layer 1"
     inkscape:groupmode="layer"
     id="layer1"><ellipse
       style="opacity:0.980565;fill:#aaaaff;stroke:#ffffff;stroke-width:0;stroke-linecap:round;stroke-linejoin:bevel;stroke-miterlimit:4.3;paint-order:stroke fill markers"
       id="path814"
       cx="67.970146"
       cy="67.785446"
       rx="67.231346"
       ry="67.046638" /><ellipse
       style="opacity:0.980565;fill:#3737c8;stroke:#ffffff;stroke-width:0;stroke-linecap:round;stroke-linejoin:bevel;stroke-miterlimit:4.3;paint-order:stroke fill markers"
       id="ellipse1578"
       cx="69.298126"
       cy="67.735573"
       rx="65.014923"
       ry="64.460815" /><path
       style="opacity:0.980565;fill:#2a7fff;stroke:#ffffff;stroke-width:0;stroke-linecap:round;stroke-linejoin:bevel;stroke-miterlimit:4.3;paint-order:stroke fill markers"
       d=""
       id="path698"
       transform="scale(0.26458333)" /><path
       id="path706"
       style="opacity:0.980565;fill:#d5d5ff;stroke:#ffffff;stroke-width:0;stroke-linecap:round;stroke-linejoin:bevel;stroke-miterlimit:4.3;paint-order:stroke fill markers;stroke-dasharray:none;fill-opacity:1"
       d="m 78.504723,112.67999 c 0.40328,-0.25065 0.46109,-0.32756 0.26523,-0.35287 -0.0789,-0.0103 -0.12413,0.002 -0.18486,0.0474 -0.0442,0.0335 -0.13875,0.0851 -0.21009,0.11479 -0.12417,0.0516 -0.12918,0.0587 -0.11718,0.16301 0.0154,0.13403 0.0666,0.13976 0.2469,0.0276 z m -2.36296,0.68745 c 0,-0.0374 0.008,-0.0853 0.0177,-0.1064 0.0145,-0.0314 -0.0306,-0.0382 -0.24916,-0.0382 -0.57714,10e-6 -1.18533,-0.22584 -1.85822,-0.69004 -0.13261,-0.0915 -0.28361,-0.20351 -0.33554,-0.24895 -0.10369,-0.0907 -0.19311,-0.10642 -0.22412,-0.0393 -0.0148,0.0321 -0.0449,0.0391 -0.11596,0.0272 -0.17637,-0.0293 -0.10341,0.0751 0.1931,0.27619 0.0757,0.0513 0.15381,0.10624 0.17353,0.12201 0.0644,0.0514 0.46477,0.27779 0.54052,0.30563 0.0406,0.0148 0.13175,0.0562 0.20248,0.0919 0.0707,0.0357 0.1503,0.0722 0.17682,0.0811 0.0265,0.01 0.0916,0.0325 0.14467,0.0521 0.0531,0.0198 0.16878,0.0546 0.25719,0.0774 0.0884,0.0228 0.23308,0.0609 0.32149,0.0848 0.0884,0.0239 0.29457,0.05 0.45813,0.058 l 0.29738,0.0145 z m 0.83056,-1.6256 c 0.0413,-0.15086 0.0832,-0.30302 0.0931,-0.33815 0.0163,-0.058 0.01,-0.0622 -0.067,-0.0466 -0.25633,0.0519 -0.23238,0.0596 -0.2899,-0.0942 -0.0685,-0.18314 -0.10327,-0.29525 -0.14633,-0.47138 -0.0237,-0.0967 -0.071,-0.17768 -0.14724,-0.25156 -0.0618,-0.0599 -0.11237,-0.12047 -0.11237,-0.13455 0,-0.0368 -0.10298,-0.0964 -0.16878,-0.0973 -0.031,-4.8e-4 -0.0563,0.0101 -0.0563,0.0234 0,0.0134 0.0707,0.15441 0.15711,0.31345 0.20364,0.37482 0.34182,0.69852 0.45365,1.06281 0.0712,0.23191 0.10256,0.29503 0.14956,0.30095 0.0507,0.007 0.0705,-0.0329 0.13453,-0.26676 z m -3.94097,0.04 c 0.11824,-0.0148 0.11277,-0.0574 -0.0366,-0.28439 -0.28117,-0.4274 -0.51134,-1.04738 -0.63507,-1.71059 -0.0748,-0.40077 -0.0848,-1.5489 -0.0166,-1.90742 0.0744,-0.3912 0.22,-0.81641 0.36756,-1.07314 0.45266,-0.78753 1.06688,-1.05939 1.95229,-0.8641 0.16798,0.037 0.3358,0.0749 0.37294,0.084 0.0624,0.0154 0.0705,8.4e-4 0.10761,-0.19216 0.0409,-0.21325 0.19715,-0.80097 0.25753,-0.96894 0.047,-0.13086 0.0422,-0.16024 -0.0265,-0.16024 -0.035,0 -0.0977,0.0473 -0.15042,0.11337 -0.0965,0.12106 -0.67384,0.60692 -0.72116,0.60692 -0.0155,0 -0.0474,0.0158 -0.0708,0.035 -0.0553,0.0457 -0.46479,0.23638 -0.58902,0.27431 -0.40103,0.12248 -0.58376,0.1708 -0.64595,0.1708 -0.0397,0 -0.0955,0.008 -0.12414,0.0166 -0.0582,0.0185 -0.33905,0.33359 -0.33905,0.38031 0,0.0165 -0.011,0.03 -0.0245,0.03 -0.0276,0 -0.034,0.01 -0.22844,0.33696 -0.17981,0.30292 -0.18249,0.30834 -0.26133,0.53004 -0.0365,0.1027 -0.0862,0.24076 -0.11031,0.30678 -0.0443,0.12126 -0.086,0.32127 -0.14622,0.70137 -0.0181,0.11429 -0.0329,0.38692 -0.0329,0.6058 0,0.3729 0.0165,0.53869 0.0993,1.00038 0.0615,0.3428 0.2447,0.89224 0.38241,1.14711 0.17988,0.33295 0.37506,0.64794 0.42152,0.68026 0.0105,0.008 0.0289,0.0464 0.0408,0.0867 0.0119,0.0403 0.0322,0.0715 0.0451,0.0694 0.0129,-0.003 0.0633,-0.01 0.11191,-0.0151 z m 0.47419,0.41002 c 0,-0.12012 -0.32036,-0.40426 -0.4558,-0.40426 -0.17667,0 -0.15334,0.15452 0.0499,0.33055 0.18394,0.15932 0.4059,0.19962 0.4059,0.0737 z m 3.02928,1.19336 c 0.27465,-0.054 1.12057,-0.32858 1.47727,-0.47959 0.1827,-0.0774 0.25151,-0.14014 0.25151,-0.22954 0,-0.11959 -0.009,-0.12149 -0.32577,-0.0676 -0.26661,0.0454 -0.382,0.0389 -0.63553,-0.036 -0.41517,-0.12234 -0.43266,-0.11906 -0.47994,0.09 -0.0523,0.23138 -0.23719,0.42617 -0.48552,0.51152 -0.11934,0.041 -0.19508,0.10597 -0.19508,0.16729 0,0.10856 0.0407,0.1131 0.39306,0.0439 z m 2.66198,-1.27865 c 0.38964,-0.51216 0.4657,-1.45423 0.15511,-1.92107 -0.18656,-0.28042 -0.47146,-0.45145 -0.8316,-0.49924 -0.70015,-0.093 -1.17876,0.2773 -1.30016,1.00565 -0.0282,0.16885 0.18906,0.15988 0.43306,-0.0179 0.2723,-0.19838 0.63366,-0.26584 0.86386,-0.16125 0.43749,0.19879 0.61836,1.03082 0.33828,1.55621 l -0.13443,0.25219 h 0.15632 c 0.11259,0 0.20199,-0.0601 0.31956,-0.21459 z m -3.02146,-5.1231 c 0.0557,-0.0892 0.25894,-0.31666 0.45174,-0.50525 0.31544,-0.30856 0.43374,-0.50617 0.303,-0.50617 -0.0449,0 -1.31766,0.22715 -1.34995,0.24092 -0.008,0.004 0.0423,0.0999 0.11252,0.21416 0.0747,0.12156 0.12762,0.31371 0.12762,0.46321 0,0.21881 0.0182,0.25548 0.12695,0.25548 0.0764,0 0.16722,-0.0646 0.22812,-0.16235 z M 46.693263,67.942749 c 0,-0.05214 -0.1193,-0.226209 -0.2651,-0.386815 -0.1458,-0.160606 -0.39565,-0.478082 -0.55521,-0.705503 -0.20703,-0.295064 -0.32651,-0.41349 -0.41719,-0.41349 -0.11218,0 -0.12167,0.02345 -0.0809,0.200074 0.17468,0.757477 0.14863,1.027064 -0.0993,1.027064 -0.0937,0 -0.1283,0.02842 -0.11331,0.09299 0.0172,0.07414 0.1584,0.111223 0.69592,0.182811 0.86037,0.114587 0.83508,0.114499 0.83508,0.0029 z m -4.3675,7.373313 c 0.26261,-0.16376 0.68,-0.396155 0.92755,-0.516446 0.64641,-0.314089 1.06092,-0.582001 1.06092,-0.685696 0,-0.09821 -0.28149,-0.133852 -1.58777,-0.201005 -0.5782,-0.02968 -0.65914,-0.02368 -0.62278,0.04644 0.13702,0.26414 0.21184,0.470406 0.21307,0.587415 0.002,0.193003 -0.20595,0.529287 -0.47208,0.763255 -0.46964,0.412888 -0.1772,0.416583 0.48109,0.0059 z m 0.0274,-1.900866 c 0.24754,-0.05878 0.48625,-0.115579 0.53046,-0.126238 0.0442,-0.01066 0.0804,-0.06531 0.0804,-0.12139 0,-0.09187 -0.0687,-0.105598 -0.69121,-0.138165 -0.38016,-0.01988 -0.78523,-0.0494 -0.90017,-0.06564 -0.1484,-0.02098 -0.20897,-0.0091 -0.20897,0.04111 0,0.102148 0.52309,0.529161 0.6403,0.522689 0.0545,-0.0034 0.30167,-0.05355 0.54922,-0.112331 z m -0.8209,-1.031361 c 0.53595,-0.08129 0.59585,-0.104314 0.59585,-0.228877 0,-0.06954 -0.13405,-0.121391 -0.5626,-0.217752 -0.30944,-0.06962 -0.73397,-0.183157 -0.94341,-0.252399 -0.68644,-0.226947 -0.73896,-0.121748 -0.16574,0.331953 0.21219,0.167939 0.38579,0.337705 0.38579,0.37725 0,0.08461 0.0722,0.08357 0.69011,-0.01015 z m 1.99712,-1.142782 c -0.0144,-0.101326 -0.0715,-0.143332 -0.2439,-0.179621 -0.77275,-0.162643 -1.13848,-0.278958 -1.30088,-0.413707 -0.16571,-0.137512 -0.23992,-0.317514 -0.12975,-0.314747 0.0265,6.16e-4 0.40514,0.02428 0.84139,0.05237 0.75499,0.04872 2.51281,-1.61e-4 3.11624,-0.08676 0.20145,-0.02893 0.24101,-0.05481 0.22504,-0.147368 -0.0181,-0.104693 -0.0913,-0.118422 -1.08029,-0.202391 -1.84069,-0.156284 -3.009,-0.373791 -4.58691,-0.853949 -0.38329,-0.116629 -0.71209,-0.199449 -0.73066,-0.184028 -0.0186,0.01539 0.013,0.239381 0.0701,0.497702 0.0571,0.258321 0.10383,0.621581 0.10375,0.807239 -1.1e-4,0.303872 -0.0194,0.353551 -0.19302,0.497635 -0.10609,0.08803 -0.19289,0.167213 -0.19289,0.175959 0,0.07282 2.82768,0.420533 3.81244,0.468791 0.29433,0.01438 0.30735,0.0091 0.28934,-0.117154 z m 1.03181,-2.453152 c -0.0173,-0.0955 -0.12857,-0.15565 -0.53628,-0.290016 -1.06366,-0.350524 -2.45748,-1.02776 -3.26875,-1.588226 -0.45131,-0.311791 -0.57723,-0.332257 -0.52855,-0.0859 0.18587,0.940597 0.20818,1.511732 0.0656,1.680602 -0.0925,0.109625 -0.0895,0.118803 0.0482,0.144279 0.58432,0.108137 1.70199,0.195863 2.86947,0.22524 l 1.37216,0.03451 z m 17.77651,-33.016078 c -0.0499,-0.256765 -0.0821,-0.70099 -0.0715,-0.987163 0.0186,-0.499418 0.0139,-0.520312 -0.1168,-0.5202 -0.0874,7.5e-5 -0.19674,0.07612 -0.3053,0.212237 -0.28511,0.3575 -0.40459,0.395506 -1.12095,0.356551 l -0.62376,-0.03392 -3.7e-4,0.2795 c -1.8e-4,0.153727 -0.0248,0.429559 -0.0545,0.612964 -0.0473,0.291641 -0.0409,0.333462 0.0513,0.333462 0.0579,0 0.18914,-0.0514 0.29153,-0.114211 0.40182,-0.246511 1.22457,-0.145287 1.61385,0.198553 0.0804,0.07099 0.20942,0.129073 0.28677,0.129073 h 0.14063 z m 39.798507,9.882053 c 0,-0.02608 0.0127,-0.0643 0.0283,-0.08495 0.041,-0.05443 0.009,-0.08658 -0.21233,-0.21095 -0.10506,-0.05913 -0.20635,-0.119496 -0.22511,-0.134132 -0.0187,-0.01462 -0.11082,-0.06811 -0.20459,-0.118839 -0.0938,-0.05073 -0.1736,-0.09782 -0.17738,-0.104654 -0.004,-0.0069 -0.0907,-0.05772 -0.19323,-0.113065 -0.10249,-0.05536 -0.19658,-0.109641 -0.20908,-0.120645 -0.0125,-0.011 -0.0841,-0.05729 -0.15913,-0.102838 -0.075,-0.04556 -0.14662,-0.09235 -0.15913,-0.103989 -0.0125,-0.01163 -0.10457,-0.06622 -0.20459,-0.121301 -0.10003,-0.05508 -0.19209,-0.10996 -0.2046,-0.121959 -0.0125,-0.012 -0.0943,-0.06344 -0.18186,-0.114306 -0.122627,-0.07127 -0.181287,-0.09339 -0.255737,-0.09641 -0.18819,-0.0077 -0.2134,-0.02643 1.074117,0.800837 0.36259,0.232971 0.78609,0.507068 0.94112,0.609102 0.15502,0.102033 0.29568,0.185513 0.31257,0.185513 0.0177,0 0.0307,-0.02016 0.0307,-0.0474 z m 2.35051,1.450775 c 0.006,-0.0047 10e-4,-0.01602 -0.0126,-0.03351 -0.0172,-0.02152 -0.0266,-0.02337 -0.039,-0.0078 -0.005,0.0061 -0.0177,0.01508 -0.0285,0.01994 -0.0326,0.01455 -0.0253,0.01999 0.029,0.02168 0.0268,7.64e-4 0.0499,6.1e-4 0.0512,-4.59e-4 z m 0.56856,0.295526 c -0.002,-0.0059 -0.003,-0.013 -0.004,-0.01596 -5e-5,-0.003 -0.005,-0.0064 -0.0114,-0.0079 -0.007,-0.0015 -0.0114,-0.0064 -0.0114,-0.01233 0,-0.0068 -0.004,-0.0099 -0.0114,-0.0099 -0.008,0 -0.0114,-0.0032 -0.0114,-0.0094 0,-0.0062 -0.004,-0.0094 -0.0114,-0.0094 -0.007,0 -0.0114,-0.0032 -0.0114,-0.0089 0,-0.0049 -0.005,-0.01 -0.0114,-0.01134 -0.007,-0.0015 -0.0114,-0.0064 -0.0114,-0.01233 0,-0.0082 -0.004,-0.0099 -0.0195,-0.0099 -0.0145,0 -0.0204,-0.0024 -0.0231,-0.0094 -0.002,-0.0052 -0.007,-0.0094 -0.0118,-0.0094 -0.004,0 -0.008,-0.0043 -0.008,-0.0094 0,-0.0062 -0.004,-0.0094 -0.0114,-0.0094 -0.008,0 -0.0114,-0.0032 -0.0114,-0.01178 0,-0.0086 -0.003,-0.01178 -0.0114,-0.01178 -0.008,0 -0.0114,-0.0032 -0.0114,-0.0094 0,-0.0079 -0.004,-0.0094 -0.0227,-0.0094 -0.0193,0 -0.0227,-0.0015 -0.0227,-0.0099 0,-0.0059 -0.005,-0.01087 -0.0114,-0.01233 -0.006,-0.0014 -0.0114,-0.0057 -0.0114,-0.0095 0,-0.0051 -0.004,-0.0064 -0.0145,-0.0048 -0.0134,0.0021 -0.0142,0.0012 -0.0109,-0.01123 0.003,-0.01153 0.002,-0.01354 -0.008,-0.01354 -0.008,0 -0.0118,-0.0031 -0.0118,-0.0094 0,-0.0064 -0.004,-0.0094 -0.0117,-0.0094 -0.0161,0 -0.0337,-0.0084 -0.0337,-0.01612 0,-0.0035 -0.005,-0.0075 -0.0114,-0.0088 -0.006,-0.0014 -0.0114,-0.0056 -0.0114,-0.0094 0,-0.0038 -0.005,-0.0081 -0.0114,-0.0094 -0.006,-0.0014 -0.0114,-0.0057 -0.0114,-0.0097 0,-0.004 -0.005,-0.0085 -0.0114,-0.0102 -0.006,-0.0016 -0.0114,-0.0069 -0.0114,-0.0115 0,-0.0066 -0.006,-0.0091 -0.027,-0.01104 -0.0148,-0.0014 -0.0279,-0.0017 -0.029,-9.28e-4 -10e-4,9.28e-4 0.004,0.0082 0.0103,0.01604 0.008,0.0094 0.0117,0.01969 0.0106,0.02976 -0.002,0.01473 -0.003,0.01541 -0.0288,0.01679 -0.0373,0.002 -0.0346,0.01046 0.009,0.02884 0.0907,0.0382 0.23113,0.118041 0.37461,0.212985 0.0911,0.06024 0.11717,0.07218 0.11011,0.0503 z m -0.44119,0.119259 c 0,-0.0053 -0.0289,-0.03552 -0.0664,-0.06955 -0.18265,-0.165867 -0.25704,-0.249979 -0.25741,-0.291053 -7e-5,-0.0077 0.003,-0.0208 0.007,-0.02936 0.004,-0.0085 0.006,-0.01652 0.004,-0.01771 -0.001,-0.0012 -0.0292,9.28e-4 -0.0617,0.0047 -0.0737,0.0085 -0.0779,0.0076 -0.16552,-0.04107 -0.0368,-0.02043 -0.071,-0.03715 -0.0759,-0.03715 -0.0246,0 -0.002,0.02251 0.10328,0.102282 0.13829,0.104939 0.22761,0.174647 0.37802,0.29503 0.064,0.05122 0.12054,0.09314 0.12563,0.09314 0.005,0 0.009,-0.0039 0.009,-0.0093 z m -4.25341,3.789289 c -0.004,-0.02441 1.4e-4,-0.03002 0.0346,-0.0436 0.0485,-0.01911 0.126,-0.01422 0.22309,0.01411 0.0373,0.01088 0.0744,0.0198 0.0824,0.0198 0.0299,0 0.0128,-0.0326 -0.0464,-0.08855 -0.1541,-0.145657 -0.264,-0.303507 -0.34874,-0.500926 -0.0957,-0.222835 -0.20575,-0.3952 -0.436737,-0.683799 -0.28517,-0.356287 -0.86541,-0.971467 -0.91629,-0.971467 -0.012,0 -0.0218,0.0042 -0.0218,0.0092 0,0.005 -0.009,0.0064 -0.019,0.0031 -0.0147,-0.0047 -0.0173,-0.0023 -0.0114,0.01051 0.004,0.0091 0.008,0.02196 0.008,0.02853 0,0.0066 0.0154,0.02529 0.0341,0.04159 0.0188,0.01629 0.0341,0.03601 0.0341,0.04384 0,0.0079 0.004,0.01423 0.009,0.01423 0.005,0 0.0162,0.01055 0.0246,0.02342 0.008,0.01289 0.0245,0.0259 0.036,0.02893 0.0117,0.0031 0.0211,0.01459 0.0213,0.0261 3.6e-4,0.02209 0.0357,0.06302 0.0544,0.06302 0.006,0 0.009,0.0075 0.006,0.0165 -0.003,0.0091 0.008,0.02873 0.0236,0.04367 0.0157,0.01495 0.0258,0.03086 0.0224,0.03536 -0.003,0.0045 -7.4e-4,0.0082 0.006,0.0082 0.007,0 0.012,0.0054 0.012,0.01206 0,0.0066 0.0102,0.01818 0.0227,0.02566 0.0125,0.0075 0.0227,0.0202 0.0227,0.0283 0,0.0082 0.0102,0.02081 0.0227,0.0283 0.0125,0.0075 0.0227,0.02157 0.0227,0.0313 0,0.0097 0.0154,0.0296 0.0341,0.04414 0.0188,0.01454 0.0341,0.03322 0.0341,0.04152 0,0.0083 0.005,0.01509 0.0114,0.01509 0.006,0 0.0114,0.0063 0.0114,0.01413 0,0.0079 0.005,0.01414 0.0114,0.01414 0.006,0 0.0114,0.0089 0.0114,0.01987 0,0.01348 0.005,0.01818 0.0165,0.01462 0.011,-0.0035 0.0144,-7.66e-4 0.0102,0.0084 -0.003,0.0076 -7.3e-4,0.01366 0.006,0.01366 0.007,0 0.0126,0.0084 0.0126,0.01886 0,0.01038 0.005,0.01886 0.0114,0.01886 0.006,0 0.0114,0.0063 0.0114,0.01414 0,0.0079 0.005,0.01414 0.0114,0.01414 0.006,0 0.0114,0.0076 0.0114,0.01678 0,0.0092 0.0102,0.0229 0.0227,0.03037 0.0125,0.0075 0.0227,0.02327 0.0227,0.03509 0,0.01182 0.005,0.0215 0.0114,0.0215 0.006,0 0.0114,0.0076 0.0114,0.01678 0,0.0092 0.0102,0.0229 0.0227,0.03037 0.0125,0.0075 0.0227,0.02035 0.0227,0.02861 0,0.0083 0.0102,0.02412 0.0227,0.03525 0.0125,0.01114 0.0227,0.02679 0.0227,0.03479 0,0.0081 0.005,0.01454 0.0114,0.01454 0.006,0 0.0114,0.0078 0.0114,0.01709 0,0.0094 0.0102,0.0262 0.0227,0.03733 0.0125,0.01114 0.0227,0.02679 0.0227,0.03479 0,0.0081 0.005,0.01454 0.0114,0.01454 0.006,0 0.0114,0.008 0.0114,0.01769 0,0.0097 0.008,0.02298 0.0171,0.02946 0.009,0.0064 0.0171,0.02183 0.0171,0.03417 0,0.01233 0.005,0.02243 0.0114,0.02243 0.006,0 0.0114,0.0084 0.0114,0.01886 0,0.01038 0.005,0.01886 0.0114,0.01886 0.006,0 0.0114,0.0084 0.0114,0.01886 0,0.01038 0.005,0.01886 0.0114,0.01886 0.006,0 0.0114,0.0097 0.0114,0.02149 0,0.01182 0.0102,0.02762 0.0227,0.03509 0.0125,0.0075 0.0227,0.02114 0.0227,0.03037 0,0.0092 0.005,0.01678 0.0114,0.01678 0.006,0 0.0114,0.0106 0.0114,0.02358 0,0.01296 0.004,0.02359 0.009,0.02359 0.005,0 0.0153,0.01378 0.0235,0.03065 0.008,0.01686 0.0197,0.03802 0.0255,0.04703 0.006,0.009 0.0106,0.0228 0.0106,0.03065 0,0.0079 0.005,0.01428 0.0114,0.01428 0.006,0 0.0114,0.0084 0.0114,0.01886 0,0.01038 0.005,0.01886 0.0114,0.01886 0.006,0 0.0114,0.0106 0.0114,0.02358 0,0.01296 0.005,0.02358 0.0114,0.02358 0.006,0 0.0114,0.0084 0.0114,0.01886 0,0.01038 0.005,0.01886 0.0114,0.01886 0.006,0 0.0114,0.0084 0.0114,0.01887 0,0.01038 0.005,0.01886 0.0114,0.01886 0.006,0 0.0114,0.01486 0.0114,0.03302 0,0.01816 0.005,0.03302 0.0114,0.03302 0.006,0 0.0114,0.0084 0.0114,0.01886 0,0.01038 0.005,0.01886 0.0114,0.01886 0.006,0 0.0114,0.0082 0.0114,0.0183 0,0.01008 0.005,0.02093 0.0114,0.02413 0.006,0.0033 0.0114,0.01406 0.0114,0.02413 0,0.01008 0.005,0.0183 0.0114,0.0183 0.006,0 0.0114,0.01273 0.0114,0.0283 0,0.01557 0.005,0.0283 0.0114,0.0283 0.006,0 0.0114,0.0106 0.0114,0.02358 0,0.01297 0.005,0.02358 0.0114,0.02358 0.006,0 0.0114,0.01227 0.0114,0.02728 0,0.01521 0.007,0.02961 0.0166,0.03256 0.01,0.0032 0.0197,0.02454 0.0242,0.05288 0.004,0.02618 0.0121,0.0476 0.0175,0.0476 0.005,0 0.01,0.0144 0.01,0.03199 0,0.0317 0.0144,0.04346 0.0534,0.04346 0.0128,0 0.0161,-0.0074 0.0125,-0.02802 z m 2.59392,-0.04415 c 0,-0.01219 0.004,-0.02215 0.009,-0.02215 0.005,0 0.0157,-0.01911 0.024,-0.04244 0.008,-0.02334 0.0196,-0.04244 0.0252,-0.04244 0.006,0 0.0101,-0.01273 0.0101,-0.0283 0,-0.01556 0.004,-0.0283 0.009,-0.0283 0.005,0 0.01,-0.0095 0.0109,-0.02107 0.001,-0.0116 0.007,-0.02257 0.0138,-0.02436 0.007,-0.0017 0.0119,-0.0098 0.0119,-0.01769 0,-0.008 0.0179,-0.04193 0.0398,-0.07553 0.0219,-0.03362 0.0398,-0.06527 0.0398,-0.07036 0,-0.0051 0.008,-0.01597 0.018,-0.02421 0.0102,-0.0084 0.0158,-0.02448 0.013,-0.03677 -0.003,-0.01204 -3.7e-4,-0.01937 0.006,-0.01637 0.0119,0.0061 0.0543,-0.028 0.0543,-0.04374 0,-0.0056 0.0102,-0.01933 0.0227,-0.03047 0.0125,-0.01114 0.0227,-0.02614 0.0227,-0.03336 0,-0.0073 0.0205,-0.02942 0.0455,-0.04935 0.025,-0.01994 0.0455,-0.04323 0.0455,-0.05175 0,-0.0085 0.0253,-0.03598 0.0563,-0.061 0.031,-0.02503 0.0595,-0.05605 0.0634,-0.06895 0.006,-0.01989 0.002,-0.02494 -0.0272,-0.03337 -0.0325,-0.0094 -0.0365,-0.0077 -0.0776,0.034 -0.072,0.073 -0.4888,0.415326 -0.63436,0.521018 -0.075,0.05448 -0.18627,0.132299 -0.24722,0.172956 -0.0697,0.0465 -0.11082,0.08054 -0.11082,0.09175 0,0.0098 0.006,0.01784 0.0125,0.01784 0.007,0 0.0714,-0.01955 0.14332,-0.04343 0.13009,-0.04319 0.23193,-0.05976 0.29126,-0.0474 0.0301,0.0062 0.0609,0.06024 0.049,0.08586 -0.004,0.0095 0.003,0.01289 0.0274,0.01232 0.0273,-6.11e-4 0.0335,-0.0049 0.0335,-0.02293 z m 0.61258,-0.841771 c 0.0194,-0.01506 0.0353,-0.03025 0.0353,-0.03375 0,-0.0036 0.0205,-0.02269 0.0455,-0.04263 0.025,-0.01994 0.0455,-0.04074 0.0455,-0.04624 0,-0.0055 0.0128,-0.01266 0.0284,-0.01591 0.0156,-0.0033 0.0285,-0.0086 0.0285,-0.01197 1.9e-4,-0.01375 0.10112,-0.09565 0.11778,-0.09565 0.023,0 0.0384,-0.04637 0.0188,-0.05642 -0.01,-0.0052 -0.0105,-0.0091 -0.001,-0.01369 0.007,-0.0036 0.0126,-0.0019 0.0126,0.0036 0,0.01468 0.0299,0.01217 0.0495,-0.0042 0.009,-0.0079 0.0238,-0.01424 0.0321,-0.01436 0.008,-1.13e-4 0.0303,-0.01497 0.049,-0.03302 0.0187,-0.01804 0.0384,-0.03281 0.0437,-0.03281 0.005,0 0.0241,-0.01273 0.0416,-0.0283 0.0175,-0.01556 0.0382,-0.0283 0.0459,-0.0283 0.0188,0 0.0442,-0.02876 0.0446,-0.05062 3.7e-4,-0.01397 -0.005,-0.01625 -0.0252,-0.011 -0.0141,0.0036 -0.0523,0.0089 -0.0851,0.01169 -0.0481,0.0042 -0.0608,0.0022 -0.0666,-0.01021 -0.0163,-0.03528 -0.0507,-0.0125 -0.17267,0.114383 -0.0686,0.07133 -0.18924,0.192232 -0.26817,0.268678 -0.0789,0.07645 -0.1435,0.141632 -0.1435,0.144856 0,0.0033 0.0128,0.0033 0.0284,-5.6e-5 0.0164,-0.0034 0.0284,-0.0018 0.0284,0.0037 0,0.01803 0.0316,0.0097 0.067,-0.01775 z m 1.12067,-0.800132 c 0.0124,-0.0026 0.0374,-0.01911 0.0554,-0.03664 0.0181,-0.01754 0.0378,-0.03188 0.0439,-0.03188 0.006,0 0.0254,-0.01273 0.0429,-0.0283 0.0175,-0.01557 0.0378,-0.0283 0.0452,-0.0283 0.0141,0 0.0458,-0.02282 0.0458,-0.03302 0,-0.01126 0.0324,-0.03302 0.0491,-0.03302 0.017,0 0.0305,-0.01913 0.0305,-0.04321 0,-0.01911 -0.0173,-0.01687 -0.11567,0.01487 -0.048,0.01548 -0.12341,0.03331 -0.16763,0.0396 -0.0806,0.01146 -0.0963,0.02267 -0.0634,0.04533 0.0219,0.01508 0.0218,0.07234 -7e-5,0.107185 -0.009,0.01487 -0.017,0.02865 -0.017,0.03065 0,0.0044 0.0206,0.0032 0.051,-0.0034 z m 1.2078,0.368527 c 0.0173,-0.0058 0.019,-0.03148 0.002,-0.03148 -0.0194,0 -0.0561,0.0187 -0.0561,0.02862 0,0.0095 0.0295,0.01105 0.054,0.0029 z m -0.1847,0.01218 c 0.29577,-0.08114 0.87492,-0.303616 1.1821,-0.454107 0.37505,-0.18374 0.63056,-0.37725 0.80476,-0.609479 0.0666,-0.08875 0.17645,-0.279313 0.22825,-0.395843 0.10975,-0.246898 0.12286,-0.341123 0.0617,-0.443117 -0.0498,-0.08298 -0.14438,-0.16013 -0.22834,-0.186198 -0.18423,-0.05718 -0.37121,-0.05281 -0.94023,0.02204 -0.33921,0.04461 -0.45456,0.05415 -0.67062,0.05543 -0.18306,0.0012 -0.18917,4.57e-4 -0.25574,-0.02536 -0.15496,-0.06015 -0.40209,-0.212039 -0.69779,-0.428896 -0.28608,-0.209802 -0.51583,-0.351319 -0.65815,-0.405383 -0.0523,-0.01988 -0.0733,-0.02274 -0.13563,-0.01859 -0.17163,0.01144 -0.14471,0.05836 0.22764,0.396837 0.36908,0.335502 0.45155,0.454701 0.45103,0.651912 -3.6e-4,0.159185 -0.0628,0.321421 -0.25586,0.665312 -0.29792,0.530706 -0.31023,0.558154 -0.26656,0.594396 0.0496,0.04119 0.24185,0.0107 0.41813,-0.06631 0.19256,-0.08411 0.22757,-0.07842 0.4014,0.06524 0.0665,0.05495 0.13031,0.114757 0.14183,0.132913 0.0364,0.05736 0.0268,0.136262 -0.0339,0.279933 -0.054,0.127744 -0.0626,0.170051 -0.0389,0.189766 0.0261,0.02164 0.14474,0.01247 0.26484,-0.02048 z m -0.55305,0.392571 c 0.0141,-0.0091 0.0394,-0.02605 0.0563,-0.03772 0.0169,-0.01166 0.0371,-0.02122 0.0449,-0.02123 0.008,-6e-6 0.0142,-0.0043 0.0142,-0.0094 0,-0.0052 0.009,-0.0094 0.0202,-0.0094 0.0111,0 0.0276,-0.0084 0.0366,-0.01886 0.009,-0.01038 0.0246,-0.01886 0.0347,-0.01886 0.0101,0 0.0251,-0.0106 0.0335,-0.02359 0.008,-0.01295 0.0246,-0.02358 0.036,-0.02358 0.0114,0 0.0208,-0.0043 0.0208,-0.0094 0,-0.0052 0.009,-0.0094 0.0202,-0.0094 0.0111,0 0.0276,-0.0084 0.0366,-0.01886 0.009,-0.01038 0.0249,-0.01886 0.0354,-0.01886 0.0104,0 0.022,-0.0063 0.0256,-0.01414 0.004,-0.0079 0.0132,-0.01414 0.0214,-0.01414 0.008,0 0.0223,-0.0084 0.0313,-0.01886 0.009,-0.01038 0.0255,-0.01886 0.0366,-0.01886 0.0111,0 0.0202,-0.0035 0.0202,-0.0078 0,-0.0043 0.0179,-0.01349 0.0398,-0.02062 0.0219,-0.0072 0.0398,-0.0164 0.0398,-0.02062 0,-0.0043 0.008,-0.0078 0.0186,-0.0078 0.0223,0 0.0487,-0.02655 0.0492,-0.04952 5.5e-4,-0.02181 -0.0124,-0.02088 -0.11331,0.0082 -0.0976,0.02814 -0.23368,0.03982 -0.27096,0.02327 -0.0196,-0.0087 -0.0246,-0.0195 -0.0246,-0.05367 0,-0.03896 -0.002,-0.0425 -0.0256,-0.03975 -0.0164,0.0019 -0.0269,0.01059 -0.0292,0.02423 -0.002,0.01168 -0.008,0.02123 -0.0142,0.02123 -0.006,0 -0.0106,0.0084 -0.0106,0.01886 0,0.01038 -0.005,0.01886 -0.0114,0.01886 -0.006,0 -0.0114,0.0082 -0.0114,0.0183 0,0.01008 -0.005,0.02093 -0.0114,0.02413 -0.006,0.0033 -0.0114,0.01313 -0.0114,0.02205 0,0.0089 -0.0102,0.02235 -0.0227,0.02982 -0.0125,0.0075 -0.0227,0.02326 -0.0227,0.03509 0,0.01184 -0.005,0.0215 -0.0114,0.0215 -0.006,0 -0.0114,0.0084 -0.0114,0.01886 0,0.01038 -0.005,0.01886 -0.0114,0.01886 -0.006,0 -0.0114,0.0076 -0.0114,0.01678 0,0.0092 -0.0102,0.0229 -0.0227,0.03037 -0.0125,0.0075 -0.0227,0.02233 -0.0227,0.03301 0,0.01069 -0.0102,0.02553 -0.0227,0.03302 -0.0125,0.0075 -0.0227,0.02114 -0.0227,0.03037 0,0.0092 -0.005,0.01678 -0.01,0.01678 -0.006,0 -0.0127,0.0084 -0.016,0.01886 -0.008,0.02454 0.0332,0.02592 0.0697,0.0024 z m 0.47916,-0.440934 c 0,-0.0503 -0.0303,-0.07545 -0.0909,-0.07545 -0.0606,0 -0.0909,0.02515 -0.0909,0.07545 0,0.0503 0.0303,0.07545 0.0909,0.07545 0.0606,0 0.0909,-0.02515 0.0909,-0.07545 z m -1.20483,-0.180754 c 0.26737,-0.167772 0.30659,-0.270102 0.12939,-0.337598 -0.0675,-0.02573 -0.12614,-0.0427 -0.13025,-0.03772 -0.004,0.005 -0.0888,0.10241 -0.18813,0.216534 -0.26288,0.301955 -0.26283,0.301843 -0.14332,0.301624 0.0577,-1.03e-4 0.20728,-0.06438 0.33231,-0.142834 z m 0.15913,-2.683055 c 0,-0.01757 -0.0307,-0.05306 -0.0682,-0.07889 -0.0555,-0.03823 -0.0682,-0.03634 -0.0682,0.01022 0,0.03145 0.0307,0.06694 0.0682,0.07889 0.0375,0.01193 0.0682,0.0074 0.0682,-0.01021 z m -0.2387,0.0078 c 0.0607,-0.0097 0.1023,-0.04384 0.1023,-0.08393 0,-0.08373 -0.82259,-0.637718 -1.95261,-1.315057 -0.23064,-0.138242 -0.36614,-0.156532 -0.36614,-0.04941 0,0.04615 0.23151,0.232437 0.6487,0.521963 0.35678,0.247605 0.80178,0.563203 0.98888,0.70133 0.1871,0.13813 0.37087,0.248965 0.40838,0.246301 0.0375,-0.0026 0.11423,-0.0122 0.17049,-0.02119 z m -2.27068,7.457704 c 0.12021,-0.05125 0.30307,-0.187648 0.40635,-0.30308 0.16491,-0.184307 0.19546,-0.363557 0.25076,-1.471348 0.0346,-0.693809 0.0918,-1.337869 0.12711,-1.431242 0.0893,-0.236318 -0.0934,-0.2213 -0.73969,0.06083 -0.57493,0.250956 -0.80671,0.249495 -1.23692,-0.0079 -0.24811,-0.148388 -0.52653,-0.196117 -0.52653,-0.09026 0,0.0314 0.0427,0.175703 0.0949,0.320678 0.0522,0.144974 0.13327,0.664903 0.1801,1.1554 0.0468,0.490495 0.13379,1.026516 0.19324,1.191159 0.21212,0.587477 0.69823,0.811234 1.25064,0.575663 z m 4.46567,-4.846897 c 0.82305,-0.337733 1.16197,-0.631334 1.41074,-1.222115 0.099,-0.23508 0.0996,-0.314122 0.003,-0.437784 -0.15459,-0.198411 -0.42058,-0.224349 -1.1689,-0.113988 -0.33963,0.05009 -0.71978,0.06977 -0.84479,0.04375 -0.125,-0.02603 -0.47079,-0.233092 -0.7684,-0.460126 -0.29762,-0.227038 -0.62331,-0.412794 -0.72377,-0.412794 -0.25944,0 -0.23377,0.05218 0.22654,0.460529 0.50426,0.447341 0.51542,0.604777 0.0945,1.333626 -0.29149,0.504699 -0.30146,0.544911 -0.13516,0.544911 0.0987,0 0.26036,-0.04188 0.35914,-0.09307 0.15244,-0.07899 0.2103,-0.06759 0.38251,0.07529 0.17771,0.147465 0.1901,0.196479 0.0999,0.394887 -0.0952,0.209296 -0.0881,0.22569 0.0936,0.215551 0.10819,-0.006 0.54509,-0.153927 0.97089,-0.328652 z M 78.627983,112.33021 c 0.62442,-0.51814 0.35546,-1.84959 -0.37362,-1.84959 -0.67398,0 -1.341,0.86659 -1.341,1.74222 0,0.45264 1.20739,0.52827 1.71462,0.10737 z m -1.86737,0.42603 c 0.16429,-0.35524 -0.0878,-1.31847 -0.56023,-2.14051 -0.56086,-0.97594 -0.74807,-1.98497 -0.53947,-2.90765 0.27393,-1.21161 0.15325,-1.4568 -0.8466,-1.72013 -0.83543,-0.22002 -1.35949,-0.0875 -1.84824,0.46704 -1.03687,1.17665 -0.85273,4.15741 0.33419,5.4095 1.25819,1.32726 3.04589,1.78797 3.46035,0.89175 z M 40.404943,76.227406 c 2.16846,-1.219164 2.36702,-1.759955 1.04805,-2.854437 -0.58351,-0.484183 -0.88732,-0.884602 -0.67514,-0.889822 0.21219,-0.0051 -0.19289,-0.385099 -0.90017,-0.844169 -0.74537,-0.483807 -0.98864,-0.838674 -0.57868,-0.844172 0.51298,-0.0068 0.62109,-0.367091 0.39353,-1.311201 -0.21785,-0.903857 -0.13777,-1.211466 0.262,-1.006443 0.39457,0.20234 0.5011,-0.126779 0.33854,-1.045867 -0.13047,-0.737617 -0.19099,-1.341122 -0.1345,-1.341122 0.0565,0 1.19301,0.400197 2.52559,0.889328 1.33258,0.489128 2.5632,0.772876 2.73472,0.630551 0.17152,-0.142325 -0.066,-1.166763 -0.52771,-2.276527 -0.46177,-1.109762 -1.22039,-3.188235 -1.68583,-4.618823 -2.11043,-6.4867 -6.90171,-7.006174 -10.35952,-1.12319 -1.31569,2.238463 -1.43716,2.856147 -1.44592,7.352323 -0.0104,5.319911 0.55604,7.340147 2.56125,9.135534 1.5734,1.408756 4.09824,1.466758 6.44379,0.148037 z m 29.56423,7.002509 c 5.72148,-2.906651 10.52448,-11.601985 10.52835,-19.060481 0.003,-6.663734 -3.04125,-12.039145 -10.30129,-18.18685 -4.4845,-3.797422 -6.93635,-6.729533 -7.9025,-9.450435 -0.14587,-0.410825 -0.73544,-0.746954 -1.31014,-0.746954 -2.3943,0 -0.74543,5.043191 3.93712,12.042031 6.25578,9.350277 7.61832,13.235294 7.25321,20.681223 -0.24591,5.015163 -1.47843,8.80409 -3.77697,11.610952 -1.33483,1.630011 -1.69231,3.898748 -0.61391,3.896066 0.35364,-8.47e-4 1.3374,-0.354378 2.18613,-0.785552 z m 7.97296,46.963275 c 0,-0.24185 0.61635,-1.04755 1.36967,-1.79043 1.21392,-1.19711 1.62335,-1.33396 3.60069,-1.20346 2.15261,0.14206 2.23102,0.10438 2.23102,-1.07231 0,-0.81811 0.57639,-1.69782 1.75111,-2.6726 1.54986,-1.28605 1.7199,-1.64607 1.47959,-3.13276 -0.35843,-2.21742 0.0793,-3.51324 1.73982,-5.15079 1.36754,-1.34859 1.36835,-1.35367 0.42314,-2.68142 -0.9972,-1.40078 -1.31351,-4.7727 -0.6358,-6.77764 0.34773,-1.02874 0.21217,-1.18824 -1.38062,-1.62443 -0.97142,-0.26603 -2.59104,-1.24126 -3.59916,-2.16719 -1.99256,-1.83014 -2.60203,-1.982451 -4.12006,-1.02971 -0.54917,0.34468 -1.70654,0.62925 -2.57193,0.63239 -1.44412,0.005 -1.64365,0.1894 -2.42781,2.24085 -0.46991,1.22934 -0.7604,2.31423 -0.64554,2.41088 0.11487,0.0966 1.13602,-0.0781 2.26924,-0.38852 2.57061,-0.70398 4.19765,-0.18516 5.65974,1.80471 1.48947,2.02712 1.31505,4.41346 -0.5488,7.50849 -2.02337,3.35992 -4.90142,5.406 -9.12783,6.48922 -6.44495,1.65181 -11.05506,0.78132 -15.53069,-2.9325 -6.22133,-5.16239 -7.56608,-13.64907 -3.53709,-22.322456 1.46603,-3.156005 4.90323,-8.068367 6.06089,-8.66206 0.31115,-0.159562 0.56573,-0.640137 0.56573,-1.067924 0,-0.561994 -0.6779,-0.938617 -2.44332,-1.357424 l -2.44333,-0.579621 5.40104,-0.218008 5.40103,-0.217998 0.16246,-1.171169 c 0.12713,-0.916466 -0.0127,-1.115399 -0.64298,-0.914708 -1.15563,0.36798 -1.00538,-0.139899 0.6977,-2.358474 2.90643,-3.786145 3.84537,-6.918888 3.84908,-12.842293 0.003,-4.737173 -0.15714,-5.71824 -1.428,-8.750029 -0.78724,-1.878056 -2.976,-5.806349 -4.86392,-8.729541 -4.44278,-6.87909 -5.18554,-8.592094 -5.21152,-12.019267 -0.0206,-2.723104 0.0203,-2.815307 1.16866,-2.633145 1.06778,0.169375 1.27714,-0.07113 2.03758,-2.340751 0.46615,-1.391237 1.20372,-2.774819 1.63907,-3.074624 0.43534,-0.299806 0.79998,-1.049786 0.81031,-1.666622 0.0157,-0.940769 0.22133,-0.774386 1.27551,1.032373 3.65971,6.272401 9.32409,8.759533 15.04351,6.605363 2.18872,-0.824358 2.19135,-0.824304 1.63811,0.03349 -0.30478,0.472543 -0.8862,0.964906 -1.29207,1.094142 -1.11071,0.353672 -0.89477,0.800973 0.67279,1.393632 4.90393,1.854065 16.99731,10.53107 17.874777,12.825164 0.18174,0.475154 0.71992,0.86391 1.19595,0.863901 1.09936,-1.7e-5 3.8709,-2.844634 3.51705,-3.609792 -0.14637,-0.31652 -2.07595,-1.720557 -4.28795,-3.120076 -5.352747,-3.386652 -11.936557,-9.141439 -12.331107,-10.778386 -0.16866,-0.699756 -0.49963,-1.272283 -0.73549,-1.272283 -0.23586,0 0.24854,-0.912351 1.07646,-2.027446 3.5897,-4.834879 1.68326,-8.849918 -4.69595,-9.889851 -2.11968,-0.345548 -2.15059,-0.370026 -0.52272,-0.414027 l 1.73015,-0.04676 -0.43488,-2.027449 c -0.23918,-1.115093 -0.37483,-3.23102 -0.30144,-4.702059 l 0.13344,-2.674614 -2.00965,0.266657 c -2.13736,0.283603 -2.40292,0.114579 -7.4386,-4.7345336 -1.32931,-1.2800524 -1.33031,-1.2802362 -2.94079,-0.533539 -2.23444,1.0360046 -3.88878,0.9372342 -7.13595,-0.4260434 -1.53667,-0.6451483 -2.87188,-0.9812766 -2.96713,-0.7469532 -0.57661,1.4184658 -2.42847,3.2858065 -3.64144,3.6718657 -0.77788,0.2475796 -2.25802,0.3397858 -3.28921,0.2049033 -2.00927,-0.2628174 -2.49738,0.1418873 -2.49738,2.0706562 0,1.207779 -2.09942,3.136375 -4.01846,3.691488 -1.39922,0.404748 -1.43886,0.498166 -1.22968,2.897807 0.19962,2.290093 0.0934,2.595583 -1.39015,3.997647 -1.39411,1.317545 -1.5374,1.668447 -1.08469,2.656473 0.75233,1.641978 0.64663,2.832994 -0.40307,4.541463 -0.78731,1.281416 -0.82896,1.69111 -0.28039,2.757943 0.94252,1.832984 0.82741,4.051146 -0.30598,5.895831 -0.9937,1.617335 -0.9934,1.627308 0.10008,3.368118 0.75903,1.208367 1.11861,2.609518 1.16779,4.550448 0.0391,1.542457 0.35664,3.37873 0.70567,4.080607 0.34903,0.701877 0.62172,2.718651 0.60598,4.481722 -0.0157,1.763072 0.10411,4.388452 0.26634,5.834182 0.16223,1.445728 0.0692,2.982318 -0.20682,3.414645 -0.27597,0.432325 -0.35059,1.548251 -0.16583,2.479831 0.25937,1.30769 0.68632,1.842816 1.87302,2.34757 0.84539,0.359582 1.63292,0.7013 1.75005,0.759378 0.11714,0.05804 0.17632,0.881811 0.13152,1.830532 -0.10855,2.298832 -1.39461,4.253209 -3.16332,4.807187 -1.15011,0.360222 -1.49629,0.783868 -1.70731,2.089352 -0.14558,0.900626 -0.72696,2.373421 -1.29195,3.272879 -0.66985,1.066398 -0.86823,1.843812 -0.57017,2.234453 0.60854,0.797589 0.59612,3.902503 -0.021,5.249387 -0.27161,0.592803 -0.91202,1.424814 -1.42312,1.848928 -0.6867,0.569814 -0.93141,1.43783 -0.93738,3.32499 -0.005,1.552119 -0.35426,3.12308 -0.89063,4.004999 -0.62155,1.022044 -0.72544,1.608214 -0.35133,1.982271 0.84,0.839868 1.17745,4.531898 0.57867,6.331368 -0.44256,1.32999 -0.39197,1.83648 0.26673,2.67067 0.75718,0.9589 1.06392,4.84272 0.44781,5.66992 -0.13646,0.1832 0.31221,0.58194 0.99703,0.88607 1.38488,0.615 2.83484,2.81425 2.83484,4.29976 0,0.53186 0.62499,1.48564 1.38888,2.11949 0.76389,0.63387 1.65155,1.79979 1.97257,2.59096 0.44043,1.08547 1.00294,1.53825 2.29209,1.84505 0.93964,0.22362 2.47981,1.04666 3.42261,1.82898 1.35624,1.12541 1.98522,1.36597 3.01222,1.15208 0.87571,-0.18239 2.18561,0.09 4.02593,0.83712 2.30266,0.93483 3.00239,1.04214 4.48894,0.68835 1.19976,-0.2855 2.30535,-0.27003 3.46877,0.0486 1.27456,0.34904 2.08892,0.33664 3.21063,-0.0489 1.38594,-0.47636 2.72302,-0.40304 4.8186,0.26423 0.45063,0.14349 0.81934,0.0629 0.81934,-0.17885 z m 3.70357,-100.895821 c -0.81562,-0.676793 -0.78649,-2.547254 0.0545,-3.50165 0.41295,-0.468623 1.15618,-0.70563 1.92894,-0.615121 1.72559,0.202112 2.03973,2.485675 0.51589,3.750139 -1.22173,1.013778 -1.64471,1.075825 -2.49937,0.366632 z" /><text
       xml:space="preserve"
       style="font-size:9.87778px;font-family:'Rage Italic';-inkscape-font-specification:'Rage Italic, ';text-align:center;text-anchor:middle;opacity:0.980565;fill:#d5d5ff;fill-opacity:1;stroke:#ffffff;stroke-width:0;stroke-linecap:round;stroke-linejoin:bevel;stroke-miterlimit:4.3;stroke-dasharray:none;paint-order:stroke fill markers"
       x="96.044769"
       y="92.720146"
       id="text1424"><tspan
         sodipodi:role="line"
         id="tspan1422"
         style="font-style:normal;font-variant:normal;font-weight:normal;font-stretch:normal;font-size:9.87778px;font-family:'Lucida Handwriting';-inkscape-font-specification:'Lucida Handwriting';fill:#d5d5ff;fill-opacity:1;stroke-width:0"
         x="96.044769"
         y="92.720146">culinect</tspan></text><path
       style="opacity:0.980565;fill:#d3d3fe;fill-opacity:1;stroke:#ffffff;stroke-width:0;stroke-linecap:round;stroke-linejoin:bevel;stroke-miterlimit:4.3;stroke-dasharray:none;paint-order:stroke fill markers"
       d="m 240.83911,508.84242 c -1.34381,-0.15613 -6.05588,-0.62733 -10.47126,-1.0471 -4.41539,-0.41978 -12.398,-1.52754 -17.73916,-2.46168 C 122.37936,489.5493 46.711982,425.04633 17.002075,338.57093 6.4921928,307.98025 2.1828602,277.72611 3.5785351,244.32953 5.7976677,191.22875 25.010751,140.47422 59.072984,97.731813 66.713223,88.144588 87.405582,67.382464 96.726216,59.951626 153.7035,14.526716 222.66849,-4.3403744 294.25133,5.9137098 c 43.91929,6.2913412 86.2919,24.9149422 122.64986,53.9070442 9.42384,7.514643 30.06772,28.219673 37.79909,37.911059 10.89439,13.656297 21.96066,30.869637 29.51204,45.905317 4.67463,9.30775 4.75508,9.59239 2.71119,9.59239 -1.47044,0 -2.27746,-1.13068 -5.95395,-8.3419 C 452.80182,89.638412 401.82402,45.7193 342.25872,25.383506 286.8144,6.4546283 224.85225,7.9186008 170.68163,29.437337 138.55425,42.19962 110.55303,60.786585 86.073853,85.599267 66.852951,105.08203 53.80577,123.26598 41.555469,147.64485 c -12.316531,24.51067 -19.717641,48.75577 -23.890362,78.2618 -1.541822,10.90248 -1.757806,47.4893 -0.341594,57.86465 2.588374,18.96276 6.363721,35.4392 11.676805,50.96016 28.328348,82.75477 100.055432,144.55478 186.707752,160.86729 45.17873,8.505 91.89918,4.36239 134.73029,-11.94626 33.21483,-12.6471 63.0534,-32.32646 88.34518,-58.26606 17.609,-18.06004 29.86733,-34.93766 42.13995,-58.01952 3.70584,-6.96979 4.61222,-8.2025 6.03114,-8.2025 2.00828,0 1.91975,0.30968 -2.74231,9.5924 -7.56106,15.05496 -18.66291,32.3256 -29.50868,45.90531 -7.70787,9.65082 -28.39468,30.42094 -37.60832,37.75977 -39.03556,31.09255 -81.88742,49.15214 -130.88072,55.15871 -8.19791,1.00506 -39.97892,1.88884 -45.37549,1.26182 z"
       id="path1994"
       transform="scale(0.26458333)" /></g></svg>
