<?xml version="1.0" encoding="UTF-8" standalone="no"?>
<!-- Created with Inkscape (http://www.inkscape.org/) -->

<svg
   width="210mm"
   height="297mm"
   viewBox="0 0 210 297"
   version="1.1"
   id="svg2524"
   xml:space="preserve"
   inkscape:version="1.2.1 (9c6d41e410, 2022-07-14)"
   sodipodi:docname="drawing.svg"
   xmlns:inkscape="http://www.inkscape.org/namespaces/inkscape"
   xmlns:sodipodi="http://sodipodi.sourceforge.net/DTD/sodipodi-0.dtd"
   xmlns="http://www.w3.org/2000/svg"
   xmlns:svg="http://www.w3.org/2000/svg"><sodipodi:namedview
     id="namedview2526"
     pagecolor="#ffffff"
     bordercolor="#000000"
     borderopacity="0.25"
     inkscape:showpageshadow="2"
     inkscape:pageopacity="0.0"
     inkscape:pagecheckerboard="0"
     inkscape:deskcolor="#d1d1d1"
     inkscape:document-units="mm"
     showgrid="false"
     inkscape:zoom="0.69041105"
     inkscape:cx="683.6507"
     inkscape:cy="582.26182"
     inkscape:window-width="1920"
     inkscape:window-height="991"
     inkscape:window-x="-9"
     inkscape:window-y="-9"
     inkscape:window-maximized="1"
     inkscape:current-layer="layer1" /><defs
     id="defs2521" /><g
     inkscape:label="Layer 1"
     inkscape:groupmode="layer"
     id="layer1"><path
       style="fill:#000000;stroke-width:0.264583"
       d="m 117.9102,280.54644 c -4.18249,-0.98189 -7.90159,-5.18686 -8.6976,-9.8339 -0.29179,-1.70346 0.11973,-12.81075 0.99714,-26.91346 0.20371,-3.27422 0.5577,-9.28688 0.78664,-13.36146 0.22895,-4.07459 0.76516,-12.76615 1.19158,-19.31458 0.42642,-6.54844 0.89946,-14.22797 1.05119,-17.06563 0.15173,-2.83765 0.34156,-5.76797 0.42183,-6.51179 l 0.14595,-1.35239 -3.38789,-0.18619 c -13.646729,-0.74993 -27.156361,-3.1423 -38.048314,-6.73777 -9.751055,-3.2189 -16.678933,-6.96368 -21.041621,-11.37383 -3.098237,-3.13193 -4.222012,-5.43989 -2.026193,-4.16129 4.139589,2.41044 5.662748,3.21522 8.528868,4.50639 9.88025,4.45095 25.996602,8.35146 40.468111,9.7941 11.971059,1.19341 29.240849,1.25148 41.407289,0.13928 13.96497,-1.27662 27.4892,-4.12634 37.83542,-7.97235 3.72962,-1.38641 10.61116,-4.69595 12.57776,-6.04901 1.23547,-0.85 1.97432,-1.00576 1.97432,-0.41616 0,0.68866 -2.32841,3.45559 -4.28501,5.09204 -10.0558,8.41039 -29.64894,14.6522 -52.20353,16.63054 -2.61938,0.22977 -5.3753,0.47948 -6.12428,0.55497 l -1.36179,0.13724 0.10697,0.97655 c 0.0589,0.5371 0.34883,4.90561 0.64437,9.7078 0.29557,4.80218 0.76528,11.94593 1.04383,15.875 0.27853,3.92906 0.69345,10.06078 0.92205,13.62604 0.2286,3.56526 0.59118,9.10166 0.80574,12.30312 0.56975,8.50172 1.44885,26.07958 1.44229,28.83958 -0.003,1.30969 -0.12835,2.91373 -0.27831,3.56452 -1.05008,4.55705 -4.89924,8.50895 -9.26899,9.51635 -1.40338,0.32351 -4.22056,0.31665 -5.62782,-0.0138 z m 7.64177,-1.4343 c 1.98954,-0.97441 4.53157,-3.48314 5.49516,-5.42309 1.03158,-2.0769 1.57554,-4.94691 1.39938,-7.3838 -0.0795,-1.10054 -0.26741,-4.56081 -0.41746,-7.68951 -0.61431,-12.80766 -1.37054,-25.11054 -3.0331,-49.34479 -1.1797,-17.19572 -1.50672,-22.54332 -1.41685,-23.16866 0.0886,-0.61635 0.1592,-0.62923 6.70412,-1.22338 10.66861,-0.96853 16.55112,-1.92318 25.13542,-4.07905 13.86237,-3.48144 25.54375,-9.24063 30.46558,-15.02021 l 0.98613,-1.15801 -1.43836,0.85035 c -0.7911,0.46768 -2.8671,1.5453 -4.61335,2.39474 -11.54917,5.61787 -27.26989,9.3903 -46.30208,11.11089 -8.69241,0.78581 -29.07781,0.78081 -37.83542,-0.009 -14.16044,-1.27754 -29.640729,-4.63563 -39.788296,-8.63119 -3.251101,-1.2801 -9.083293,-4.13961 -10.750157,-5.27079 l -0.993307,-0.67405 1.103069,1.40494 c 6.26609,7.98091 25.020372,15.34141 46.33531,18.18521 5.549471,0.74041 12.329121,1.3413 15.148041,1.3426 1.8715,0 2.35457,0.0823 2.48361,0.41857 0.20319,0.52948 -0.61892,15.76525 -1.49794,27.76064 -0.2381,3.24911 -0.71022,11.07191 -1.33334,22.0927 -0.15222,2.69214 -0.38868,6.6212 -0.52548,8.73125 -0.1368,2.11005 -0.42824,7.70599 -0.64765,12.43542 -0.2194,4.72943 -0.44465,9.41051 -0.50054,10.40241 -0.20395,3.61926 0.90745,7.00259 3.07151,9.35032 1.39012,1.5081 2.29073,2.14403 4.13859,2.92224 1.30465,0.54944 1.81889,0.61437 4.26179,0.53796 2.43673,-0.0762 2.9732,-0.18246 4.36562,-0.86445 z m 34.06529,-3.70729 c -3.35224,-0.90268 -5.50531,-2.61501 -7.5021,-5.96633 -1.26254,-2.11902 -9.52307,-16.93235 -15.18288,-27.22694 -3.4912,-6.35016 -3.22524,-5.4487 -3.55182,-12.03855 -0.2536,-5.11675 -0.65174,-10.71401 -1.9146,-26.91592 -0.31578,-4.05138 -0.21227,-5.10001 0.401,-4.06244 0.77227,1.30654 6.29486,9.60704 8.20039,12.32524 2.99813,4.27683 11.77116,16.53164 22.16097,30.95625 10.95603,15.21063 10.92401,15.16319 11.62339,17.22705 0.78607,2.31968 0.7851,5.56246 -0.003,7.88643 -1.33871,3.95063 -4.69902,6.99389 -8.64581,7.83008 -2.24137,0.47487 -3.78262,0.47077 -5.58613,-0.0148 z m 5.43473,-0.65979 c 1.86981,-0.4313 3.47273,-1.32017 5.10365,-2.83012 2.77514,-2.56929 4.10123,-6.46009 3.46544,-10.16778 -0.50351,-2.93616 -0.51332,-2.95161 -11.82008,-18.60954 -3.81045,-5.27683 -19.87256,-27.6856 -22.85479,-31.88544 -0.67286,-0.94761 -2.46951,-3.59087 -3.99253,-5.87391 -1.52302,-2.28304 -2.80855,-4.11157 -2.85671,-4.06342 -0.0875,0.0875 0.28228,5.27283 1.26542,17.74569 0.28676,3.63802 0.63103,8.9363 0.76507,11.77395 l 0.24366,5.15938 2.96442,5.42396 c 9.33786,17.08546 15.3942,27.81326 16.66787,29.52435 2.37276,3.1877 6.92415,4.75427 11.04858,3.80288 z m -56.16877,-98.16298 c -2.91041,-0.099 -5.31971,-0.19621 -5.354,-0.21593 -0.0343,-0.0196 -0.43537,-0.77996 -0.89131,-1.68947 -1.10521,-2.20469 -6.198368,-10.97928 -10.17441,-17.52864 -1.766879,-2.91042 -4.034004,-6.65731 -5.038058,-8.32644 -2.491067,-4.1411 -5.983353,-7.73064 -8.837008,-9.0831 -2.4109,-1.14262 -4.253259,-1.63142 -8.218292,-2.18039 -7.216618,-0.99915 -13.335586,-4.21865 -19.326422,-10.1686 -1.688915,-1.67739 -3.935338,-4.1809 -4.992052,-5.56334 -5.84509,-7.64686 -10.176727,-17.86681 -11.83091,-27.913548 -0.672489,-4.08437 -0.671512,-13.80512 0.0019,-17.15198 1.028637,-5.11368 2.815569,-8.70387 5.592958,-11.23702 2.881411,-2.62804 5.109877,-3.34871 9.775611,-3.16137 3.956589,0.15887 6.610463,0.89358 11.189204,3.09766 5.704398,2.74594 10.651625,6.34058 15.843183,11.5116 8.879858,8.84472 14.408147,18.29191 16.520744,28.231988 1.609077,7.57094 1.317514,12.73789 -1.18433,20.98829 -0.842904,2.77967 -1.031952,6.71686 -0.43829,9.12812 0.973052,3.95226 6.250341,12.76324 19.133122,31.94471 l 3.59593,5.35405 0.16109,-4.5603 c 1.22874,-34.78607 1.51485,-46.36728 1.22711,-49.67179 -0.57097,-6.55714 -2.14039,-9.86157 -6.28342,-13.22986 -4.35781,-3.5429 -5.84555,-5.303488 -7.54369,-8.927228 -1.932106,-4.12301 -2.135767,-5.86826 -1.968492,-16.86895 0.146471,-9.63246 0.439142,-14.61226 1.648312,-28.04583 1.12598,-12.50929 3.0103,-26.52408 3.91922,-29.14942 0.63513,-1.83455 1.95042,-1.86951 2.32471,-0.0618 0.15352,0.74145 0.51833,22.10945 0.82246,48.17432 0.0596,5.10499 0.073,5.21787 0.70216,5.88698 0.80749,0.85879 1.85572,0.88308 2.62813,0.0609 0.57541,-0.61251 0.58908,-0.81546 0.96678,-14.35364 0.65109,-23.33801 1.07957,-33.62002 1.6233,-38.95357 0.22316,-2.18905 1.04677,-3.02417 2.02134,-2.0496 0.62261,0.62262 0.92337,7.89773 1.6188,39.15812 l 0.34687,15.59147 0.83553,0.74655 c 1.04502,0.93371 1.47193,0.93625 2.39395,0.0142 l 0.73231,-0.73231 0.17738,-7.27134 c 0.0975,-3.99923 0.29789,-13.16492 0.44524,-20.3682 0.32165,-15.72648 0.68014,-26.16178 0.91996,-26.77899 0.2617,-0.67353 1.14427,-0.85694 1.70066,-0.35342 0.63328,0.57312 0.71358,1.42863 1.34207,14.30012 0.29133,5.96635 0.6409,13.05057 0.77679,15.7427 0.13592,2.69214 0.39595,9.34333 0.57788,14.78042 0.29339,8.76809 0.38404,9.95334 0.80198,10.48466 0.74792,0.9508 1.50529,1.0064 2.33992,0.17178 l 0.72604,-0.72606 0.17161,-9.90801 c 0.0944,-5.4494 0.25855,-17.60019 0.36486,-27.00175 0.20349,-18.01355 0.19966,-17.96353 1.37933,-17.96353 0.2554,0 0.60793,0.17299 0.7834,0.38442 0.58055,0.6995 1.57084,6.50013 2.78011,16.28433 2.31595,18.73813 3.27922,30.51125 3.49615,42.7302 0.17743,9.99318 0.0311,11.48647 -1.49309,15.23173 -1.4537,3.57216 -3.23178,5.799708 -7.18693,9.003648 -1.40052,1.13452 -2.9047,2.51553 -3.34262,3.0689 -1.34958,1.70541 -2.68179,4.3879 -3.26919,6.58275 -0.98089,3.66511 -0.96917,14.34468 0.0411,37.41818 0.9484,21.6609 1.04241,24.97497 0.71433,25.1833 -0.37537,0.23842 -9.96317,0.20569 -17.79093,-0.0607 z m 17.32751,-1.64081 c -0.003,-0.61847 -0.29305,-7.97058 -0.64796,-16.33802 -1.04011,-24.52175 -1.33392,-36.64821 -0.97854,-40.38576 0.64389,-6.77213 2.5041,-10.37763 7.39966,-14.34219 4.33125,-3.50759 6.07737,-5.826128 7.5034,-9.963258 1.23571,-3.58507 1.44205,-6.8138 1.05164,-16.45409 -0.48514,-11.979 -1.27106,-20.9737 -3.36759,-38.54229 -1.21841,-10.20993 -2.38594,-17.12034 -2.92167,-17.29291 -0.16396,-0.0528 -0.38396,0.11736 -0.48887,0.37818 -0.10488,0.26081 -0.29681,10.11826 -0.42645,21.90545 -0.12967,11.78718 -0.26689,23.85227 -0.30491,26.8113 l -0.0691,5.38006 -0.86407,0.7715 c -1.5248,1.36146 -3.49335,0.7247 -3.99794,-1.2932 -0.13451,-0.5379 -0.31398,-4.25222 -0.3988,-8.25404 -0.25385,-11.97235 -1.89447,-44.36255 -2.3013,-45.43252 -0.35547,-0.93501 -0.72482,-0.71891 -0.88794,0.5195 -0.23886,1.81376 -0.6432,16.53082 -0.95046,34.59427 -0.15716,9.24057 -0.34896,17.32641 -0.42622,17.96854 -0.44214,3.67493 -5.01261,3.53427 -5.29418,-0.16294 -0.0531,-0.69803 -0.27596,-9.12727 -0.49511,-18.73164 -0.43802,-19.19542 -0.83674,-31.59771 -1.07814,-33.53594 -0.16736,-1.3437 -0.78366,-1.74279 -1.02147,-0.66145 -0.43891,1.9958 -1.20165,20.28684 -1.72944,41.47343 -0.15407,6.18464 -0.34061,11.62457 -0.41454,12.08874 -0.15873,0.99658 -1.45631,2.19876 -2.37324,2.19876 -1.05051,0 -1.92847,-0.55497 -2.37859,-1.50353 -0.37691,-0.79428 -0.45826,-3.61941 -0.68648,-23.84199 -0.28527,-25.27656 -0.44911,-30.5108 -0.96035,-30.68014 -0.48389,-0.16029 -0.80572,0.91014 -1.52394,5.06865 -2.44879,14.17867 -4.71392,40.65741 -4.73258,55.32264 -0.008,6.11276 0.0705,7.75 0.44766,9.36209 1.27284,5.4405 3.54784,8.871228 8.55139,12.895598 3.51702,2.82876 5.15171,5.27345 6.23148,9.31924 0.73891,2.76862 0.90103,9.55275 0.50736,21.2306 -0.76344,22.64647 -1.07728,33.15612 -1.07978,36.15861 -0.003,3.69882 -0.26969,4.07789 -1.48877,2.11666 -0.38443,-0.61846 -2.56896,-3.92244 -4.8545,-7.34218 -3.41229,-5.10562 -7.09973,-10.774 -12.048364,-18.52084 -2.995551,-4.68939 -5.197869,-9.07297 -5.845359,-11.63484 -0.705774,-2.79246 -0.406006,-7.03162 0.77325,-10.93489 1.462087,-4.83942 1.868984,-7.79885 1.677955,-12.20402 -0.368683,-8.50182 -3.126679,-16.489368 -8.41141,-24.360618 -4.779603,-7.1189 -11.352548,-13.80241 -17.827368,-18.12723 -3.680132,-2.45812 -3.91161,-2.59278 -6.746875,-3.92498 -8.92173,-4.19204 -15.375463,-4.20596 -19.924862,-0.043 -2.683213,2.45532 -4.095437,5.10278 -5.175128,9.70166 -2.467028,10.50818 -0.320688,24.389618 5.608341,36.271938 5.917022,11.85827 15.084993,20.68909 24.783316,23.87193 0.945885,0.31043 3.327135,0.79815 5.291666,1.08384 4.150286,0.60354 6.892221,1.44333 9.238665,2.82959 2.420567,1.43006 5.597318,4.91167 7.804184,8.55315 8.462436,13.96357 12.978879,21.59617 15.128219,25.56608 l 1.03414,1.91008 3.04271,0.0835 c 1.67349,0.046 6.64435,0.10914 11.04635,0.14044 l 8.00365,0.0569 -0.003,-1.12448 z"
       id="path3278" /></g></svg>
