<?xml version="1.0" encoding="UTF-8" standalone="no"?>
<!-- Created with Inkscape (http://www.inkscape.org/) -->

<svg
   width="210mm"
   height="297mm"
   viewBox="0 0 210 297"
   version="1.1"
   id="svg5916"
   xml:space="preserve"
   inkscape:version="1.2.1 (9c6d41e410, 2022-07-14)"
   sodipodi:docname="drawing-1.svg"
   xmlns:inkscape="http://www.inkscape.org/namespaces/inkscape"
   xmlns:sodipodi="http://sodipodi.sourceforge.net/DTD/sodipodi-0.dtd"
   xmlns="http://www.w3.org/2000/svg"
   xmlns:svg="http://www.w3.org/2000/svg"><sodipodi:namedview
     id="namedview5918"
     pagecolor="#ffffff"
     bordercolor="#000000"
     borderopacity="0.25"
     inkscape:showpageshadow="2"
     inkscape:pageopacity="0.0"
     inkscape:pagecheckerboard="0"
     inkscape:deskcolor="#d1d1d1"
     inkscape:document-units="mm"
     showgrid="false"
     inkscape:zoom="0.17238005"
     inkscape:cx="1856.3633"
     inkscape:cy="1389.3719"
     inkscape:window-width="1920"
     inkscape:window-height="991"
     inkscape:window-x="-9"
     inkscape:window-y="-9"
     inkscape:window-maximized="1"
     inkscape:current-layer="layer1" /><defs
     id="defs5913" /><g
     inkscape:label="Layer 1"
     inkscape:groupmode="layer"
     id="layer1"><path
       style="fill:#000000;stroke-width:0.264583"
       d="M 96.857776,174.01625 C 57.443931,171.12378 35.142611,129.91567 54.991751,96.656696 61.457086,85.82347 74.881076,75.861426 86.00986,73.637926 c 5.939906,-1.186775 7.257838,-1.366776 10.980208,-1.499671 23.441922,-0.836909 43.937972,13.526166 51.313392,35.959005 0.73258,2.22815 1.39243,2.67508 6.20877,4.20534 3.43611,1.09174 4.67889,1.85488 4.63701,2.84742 -0.0124,0.29512 -0.106,0.24162 -0.30711,-0.17564 -0.40515,-0.84054 -1.63443,-1.53046 -3.64373,-2.04499 -4.66955,-1.19575 -6.60625,-2.37567 -7.25427,-4.41958 -14.72337,-46.440435 -80.063402,-48.390911 -96.710799,-2.88693 -15.66426,42.81669 29.767747,82.8373 70.759859,62.33167 13.91976,-6.96313 22.14258,-17.68039 27.14964,-35.38563 2.13966,-7.56591 5.54373,-13.27123 9.21067,-15.43736 0.43447,-0.25665 0.8386,-0.712 0.89808,-1.0119 0.0894,-0.45125 0.11398,-0.43122 0.14232,0.1162 0.0249,0.48221 -0.22138,0.83556 -0.90901,1.30389 -3.61971,2.46539 -6.76701,7.93031 -8.8488,15.36486 -7.40762,26.45458 -28.51041,42.89259 -52.778314,41.11164 z M 96.052337,153.54616 C 79.888498,151.76794 68.782824,137.9913 67.361991,117.95565 66.021974,99.059626 73.259056,91.563073 92.889027,91.513392 c 20.779503,-0.05259 33.968473,9.869228 36.623653,27.551278 2.85464,19.01038 -14.21305,36.59892 -33.460343,34.48149 z M 104.7975,152.766 c 20.96182,-4.42577 31.05539,-27.87728 19.80208,-46.00842 C 112.40001,87.101815 72.580423,86.489241 68.53419,105.89509 62.93353,132.756 82.119461,157.55413 104.7975,152.766 Z"
       id="path6661" /></g><g
     inkscape:groupmode="layer"
     id="layer3"
     inkscape:label="Layer 2" /></svg>
